<svg xmlns="http://www.w3.org/2000/svg" width="500" height="90" viewBox="0 0 500 90">
  <metadata><?xpacket begin="﻿" id="W5M0MpCehiHzreSzNTczkc9d"?>
<x:xmpmeta xmlns:x="adobe:ns:meta/" x:xmptk="Adobe XMP Core 5.6-c142 79.160924, 2017/07/13-01:06:39        ">
   <rdf:RDF xmlns:rdf="http://www.w3.org/1999/02/22-rdf-syntax-ns#">
      <rdf:Description rdf:about=""/>
   </rdf:RDF>
</x:xmpmeta>
                                                                                                    
                                                                                                    
                                                                                                    
                                                                                                    
                                                                                                    
                                                                                                    
                                                                                                    
                                                                                                    
                                                                                                    
                                                                                                    
                                                                                                    
                                                                                                    
                                                                                                    
                                                                                                    
                                                                                                    
                                                                                                    
                                                                                                    
                                                                                                    
                                                                                                    
                                                                                                    
                           
<?xpacket end="w"?></metadata>
<defs>
    <style>
      .cls-1 {
        fill-rule: evenodd;
      }
    </style>
  </defs>
  <path id="gumrindelwald" class="cls-1" d="M29.293,73.7a7.6,7.6,0,0,1-2.8-4.85H19.758a13.073,13.073,0,0,0,4.722,8.931q3.916,3.075,10.578,3.075,9.187,0,13.616-4.758t4.465-14.677V25.151H46.953v5.637l-0.476-.7a12.872,12.872,0,0,0-11.2-6.112A14.914,14.914,0,0,0,23.308,29.4q-4.576,5.417-4.575,14.238,0,9.992,4.648,15.867A15.13,15.13,0,0,0,35.9,65.376a12.84,12.84,0,0,0,10.614-5.2l0.037-.037v1.281q0,6.844-2.965,10.413T34.948,75.4h0A9.012,9.012,0,0,1,29.293,73.7ZM44.226,34.137Q46.879,38.291,46.88,46.6q0,5.893-2.928,9.48a9.479,9.479,0,0,1-7.723,3.587,9.052,9.052,0,0,1-7.851-3.9q-2.764-3.9-2.763-11.108,0-7.649,2.544-11.163t8.071-3.514A8.855,8.855,0,0,1,44.226,34.137Zm23-8.986H60.634v26.9q0,6.662,3.331,9.992t9.992,3.331A13.2,13.2,0,0,0,84.5,60.362a16.961,16.961,0,0,0,1.464-2.013v5.966h6.259V25.151H85.633v20.9q0,6.3-2.782,9.974a8.955,8.955,0,0,1-7.54,3.678q-4.282,0-6.186-2.178t-1.9-7.119V25.151h0ZM100.23,64.315h6.588V43.342a15.622,15.622,0,0,1,2.8-9.626,8.616,8.616,0,0,1,7.192-3.733,6.07,6.07,0,0,1,4.85,1.922,8.29,8.29,0,0,1,1.665,5.582V64.315h6.589v-22q0-5.673,2.525-9a8.1,8.1,0,0,1,6.808-3.331,6.416,6.416,0,0,1,5.344,2.306q1.83,2.306,1.83,6.771V64.315h6.588V36.827q0-6.149-3.349-9.5t-9.5-3.349a12.954,12.954,0,0,0-10.139,4.941l-1.061,1.354a10.085,10.085,0,0,0-2.159-3.184,11.329,11.329,0,0,0-8.382-3.111,13.437,13.437,0,0,0-10.578,5.234l-1.354,1.757v-5.82H100.23V64.315h0Zm61.483,0H168.3V43.342q0-5.929,2.91-9.132t8.254-3.2l1.354,0.037V24.309a5.69,5.69,0,0,0-1.867-.329q-5.454,0-9.187,5.014a22.937,22.937,0,0,0-1.793,2.855v-6.7h-6.259V64.315h0Zm22.393,0h6.588V25.151h-6.588V64.315h0Zm-0.073-46.338h6.734V10.511h-6.734v7.467Zm14.633,46.338h6.588V43.342q0-6.149,2.782-9.754a9.019,9.019,0,0,1,7.54-3.605q4.464,0,6.46,2.288t2,7.448v24.6h6.588V37.486q0-6.478-3.514-9.992t-9.992-3.514a13.523,13.523,0,0,0-10.724,5.014l-1.464,1.94V25.151h-6.259V64.315h0Zm65.4-4.136,0.842-1.208v5.344h6.113v-53.8h-6.589V30.824l-0.512-.732A13.177,13.177,0,0,0,252.5,23.98,14.551,14.551,0,0,0,240.75,29.4q-4.5,5.417-4.5,14.238,0,9.992,4.649,15.867a15.129,15.129,0,0,0,12.517,5.874h0a12.875,12.875,0,0,0,10.651-5.2h0Zm-2.4-25.932q2.763,4.337,2.763,12.353,0,5.929-2.928,9.535a9.459,9.459,0,0,1-7.723,3.605,9.072,9.072,0,0,1-7.887-3.916q-2.764-3.916-2.764-11.163,0-7.686,2.562-11.218t8.089-3.532A8.823,8.823,0,0,1,261.668,34.247Zm43.9,27.744a16.511,16.511,0,0,0,5.856-9.827H304.9a8.6,8.6,0,0,1-3.439,5.417,10.635,10.635,0,0,1-6.584,2.123q-6,0-8.78-3.733-2.268-3.075-2.67-8.931h28.606l0.078-2.343q0-9.3-4.722-15.007a15.317,15.317,0,0,0-12.408-5.71q-8.491,0-13.524,5.838t-5.033,15.72q0,9.3,4.758,14.567t13.067,5.271h0Q301.172,65.376,305.564,61.991ZM283.432,41.732a14.839,14.839,0,0,1,2.965-7.979,10.11,10.11,0,0,1,8.31-3.88q5.162,0,7.833,3.367,2.416,3.039,2.71,8.492H283.432Zm34.825,22.583h6.589v-53.8h-6.589v53.8h0Zm25.5,0h3.514l13.044-30.6H360.31l2.7,30.6h7.064l18-39.164h-6.543l-13.479,31.4h-0.008l-2.334-31.4h-7.32L345.244,56.336h0L343.22,25.151h-7.23l4.221,39.164h3.55Zm64.383-3.367a18.483,18.483,0,0,0,1.994-1.757,7.383,7.383,0,0,0,.9,3.843q1.322,2.049,5.055,2.05a9.679,9.679,0,0,0,1.832-.22,14.862,14.862,0,0,0,2.117-.586l0.839-4.758q-0.685.147-1.265,0.22a7.545,7.545,0,0,1-.873.073,1.857,1.857,0,0,1-1.522-.6,1.879,1.879,0,0,1-.324-1.592l3.8-21.522q1.044-5.929-2.143-9.022T408.221,23.98q-7.577,0-12.211,3.239a16.025,16.025,0,0,0-6.245,9.681h6.076a10.347,10.347,0,0,1,3.754-5.618,11.162,11.162,0,0,1,6.682-1.885q4.247,0,6.312,1.775a4.913,4.913,0,0,1,1.511,4.923l-0.058.329a4.982,4.982,0,0,1-1.134,2.489,4.206,4.206,0,0,1-2.209,1.318,15.015,15.015,0,0,1-2.151.366l-9.167,1.135a18.685,18.685,0,0,0-9.927,3.88,13.606,13.606,0,0,0-4.643,8.382q-0.924,5.235,1.9,8.309t8.572,3.074h0a20.477,20.477,0,0,0,12.859-4.429h0Zm3.194-9.809a8.293,8.293,0,0,1-.484,1.5,12.275,12.275,0,0,1-4.045,4.465,15.951,15.951,0,0,1-9.282,2.818q-3.294,0-4.774-1.775t-0.9-5.069a6.1,6.1,0,0,1,2.941-4.228,18.821,18.821,0,0,1,7.345-2.214l6.194-.879a16.208,16.208,0,0,0,4.275-1.208L411.861,48.8h0q-0.226,1.282-.523,2.343h0Zm13.774,13.177H431.7l9.487-53.8H434.6l-9.487,53.8h0Zm40.947-4.136,1.055-1.208-0.943,5.344h6.113l9.487-53.8h-6.588L471.6,30.824l-0.383-.732q-3.132-6.112-10.343-6.112a17.483,17.483,0,0,0-12.7,5.417,25.754,25.754,0,0,0-7.012,14.238q-1.763,9.992,1.85,15.867t11.482,5.874h0a15.556,15.556,0,0,0,11.568-5.2h0Zm2.175-25.932q2,4.337.585,12.353a17.481,17.481,0,0,1-4.609,9.535,11.381,11.381,0,0,1-8.359,3.605q-5.124,0-7.2-3.916t-0.8-11.163q1.356-7.686,4.54-11.218a11.139,11.139,0,0,1,8.712-3.532Q466.235,29.909,468.234,34.247Z"/>
</svg>
