<svg xmlns="http://www.w3.org/2000/svg" width="500" height="90" viewBox="0 0 500 90">
  <metadata><?xpacket begin="﻿" id="W5M0MpCehiHzreSzNTczkc9d"?>
<x:xmpmeta xmlns:x="adobe:ns:meta/" x:xmptk="Adobe XMP Core 5.6-c142 79.160924, 2017/07/13-01:06:39        ">
   <rdf:RDF xmlns:rdf="http://www.w3.org/1999/02/22-rdf-syntax-ns#">
      <rdf:Description rdf:about=""/>
   </rdf:RDF>
</x:xmpmeta>
                                                                                                    
                                                                                                    
                                                                                                    
                                                                                                    
                                                                                                    
                                                                                                    
                                                                                                    
                                                                                                    
                                                                                                    
                                                                                                    
                                                                                                    
                                                                                                    
                                                                                                    
                                                                                                    
                                                                                                    
                                                                                                    
                                                                                                    
                                                                                                    
                                                                                                    
                                                                                                    
                           
<?xpacket end="w"?></metadata>
<defs>
    <style>
      .cls-1 {
        fill: #fff;
        fill-rule: evenodd;
      }
    </style>
  </defs>
  <path id="gumrindelwald" class="cls-1" d="M31.51,73.326a7.509,7.509,0,0,1-2.765-4.789H22.094a12.91,12.91,0,0,0,4.663,8.82q3.867,3.036,10.446,3.036,9.072,0,13.446-4.7T55.059,61.2V25.378H48.95v5.567l-0.47-.687A12.712,12.712,0,0,0,37.42,24.221a14.729,14.729,0,0,0-11.82,5.35q-4.519,5.35-4.518,14.061,0,9.868,4.591,15.67a14.942,14.942,0,0,0,12.362,5.8A12.681,12.681,0,0,0,48.517,59.97l0.036-.036V61.2q0,6.759-2.928,10.284t-8.531,3.524h0A8.9,8.9,0,0,1,31.51,73.326ZM46.257,34.252q2.62,4.1,2.621,12.308,0,5.82-2.892,9.362a9.361,9.361,0,0,1-7.627,3.542,8.939,8.939,0,0,1-7.753-3.85q-2.73-3.849-2.729-10.97,0-7.554,2.512-11.025t7.97-3.47A8.745,8.745,0,0,1,46.257,34.252Zm22.711-8.874H62.462V51.946q0,6.579,3.289,9.868T75.619,65.1a13.038,13.038,0,0,0,10.41-4.952,16.736,16.736,0,0,0,1.446-1.988v5.892h6.181V25.378H87.15v20.64q0,6.218-2.747,9.85A8.844,8.844,0,0,1,76.956,59.5q-4.229,0-6.109-2.151t-1.88-7.031V25.378h0Zm32.6,38.677h6.506V43.343a15.426,15.426,0,0,1,2.765-9.507,8.51,8.51,0,0,1,7.1-3.687,6,6,0,0,1,4.79,1.9,8.188,8.188,0,0,1,1.644,5.512v26.5h6.507V42.331q0-5.6,2.494-8.892a8,8,0,0,1,6.723-3.289,6.335,6.335,0,0,1,5.277,2.277q1.808,2.277,1.808,6.687V64.055h6.506V36.909q0-6.073-3.308-9.38T141,24.221a12.791,12.791,0,0,0-10.013,4.88l-1.048,1.337a9.961,9.961,0,0,0-2.133-3.145,11.185,11.185,0,0,0-8.277-3.073,13.272,13.272,0,0,0-10.447,5.169l-1.337,1.735V25.378h-6.181V64.055h0Zm60.718,0h6.507V43.343q0-5.856,2.873-9.019t8.151-3.163l1.338,0.036V24.547a5.621,5.621,0,0,0-1.844-.325q-5.386,0-9.072,4.952a22.552,22.552,0,0,0-1.771,2.819V25.378h-6.182V64.055h0Zm22.115,0H190.9V25.378H184.4V64.055h0Zm-0.072-45.761h6.65V10.919h-6.65v7.374Zm14.451,45.761h6.506V43.343q0-6.073,2.747-9.633a8.908,8.908,0,0,1,7.446-3.56q4.41,0,6.38,2.259t1.97,7.356v24.29h6.507v-26.5q0-6.4-3.47-9.868T217,24.221A13.354,13.354,0,0,0,206.4,29.173l-1.446,1.916V25.378h-6.181V64.055h0Zm64.586-4.085,0.831-1.193v5.277h6.037V10.919h-6.506V30.981l-0.506-.723a13.014,13.014,0,0,0-11.278-6.036,14.369,14.369,0,0,0-11.6,5.35q-4.446,5.35-4.446,14.061,0,9.868,4.59,15.67a14.943,14.943,0,0,0,12.363,5.8h0a12.715,12.715,0,0,0,10.518-5.133h0ZM261,34.36q2.729,4.283,2.729,12.2,0,5.856-2.892,9.416a9.342,9.342,0,0,1-7.627,3.56,8.962,8.962,0,0,1-7.79-3.868q-2.728-3.867-2.729-11.025,0-7.591,2.531-11.079t7.988-3.488A8.714,8.714,0,0,1,261,34.36Zm43.35,27.4a16.3,16.3,0,0,0,5.783-9.705H303.7a8.494,8.494,0,0,1-3.4,5.35,10.5,10.5,0,0,1-6.5,2.1q-5.925,0-8.67-3.687-2.24-3.036-2.637-8.82h28.25l0.077-2.313q0-9.181-4.663-14.82A15.125,15.125,0,0,0,293.9,24.221q-8.386,0-13.357,5.765t-4.97,15.525q0,9.182,4.7,14.386T293.177,65.1h0Q300.008,65.1,304.346,61.759ZM282.489,41.752a14.661,14.661,0,0,1,2.928-7.88,9.985,9.985,0,0,1,8.206-3.832q5.1,0,7.737,3.326,2.385,3,2.675,8.386H282.489Zm34.392,22.3h6.507V10.919h-6.507V64.055h0Zm25.187,0h3.47L358.42,33.836h-0.009l2.67,30.218h6.976L385.83,25.378h-6.462L366.056,56.392h-0.007l-2.3-31.014h-7.229l-12.983,30.8h0.006l-2-30.8h-7.14l4.169,38.677h3.506Zm63.582-3.325a18.183,18.183,0,0,0,1.969-1.735,7.293,7.293,0,0,0,.885,3.8q1.305,2.024,4.993,2.024a9.555,9.555,0,0,0,1.809-.217,14.642,14.642,0,0,0,2.09-.578l0.829-4.7q-0.677.145-1.25,0.217a7.424,7.424,0,0,1-.861.072,1.691,1.691,0,0,1-1.823-2.169l3.748-21.254q1.032-5.856-2.116-8.91t-10.2-3.054q-7.482,0-12.059,3.2a15.82,15.82,0,0,0-6.167,9.561h6a10.221,10.221,0,0,1,3.707-5.548,11.026,11.026,0,0,1,6.6-1.861q4.192,0,6.233,1.753a4.855,4.855,0,0,1,1.493,4.862l-0.058.325a4.921,4.921,0,0,1-1.12,2.458,4.153,4.153,0,0,1-2.181,1.3,14.854,14.854,0,0,1-2.124.361L397,41.752a18.449,18.449,0,0,0-9.8,3.831,13.442,13.442,0,0,0-4.586,8.277q-0.912,5.17,1.879,8.205t8.465,3.036h0a20.221,20.221,0,0,0,12.7-4.374h0Zm3.155-9.687a8.192,8.192,0,0,1-.479,1.482,12.112,12.112,0,0,1-3.994,4.41,15.753,15.753,0,0,1-9.166,2.783q-3.253,0-4.716-1.753t-0.888-5.006a6.026,6.026,0,0,1,2.9-4.175,18.589,18.589,0,0,1,7.254-2.187l6.117-.867a16.014,16.014,0,0,0,4.222-1.193l-0.739,4.193h0q-0.224,1.266-.516,2.313h0Zm13.6,13.013h6.506l9.37-53.135h-6.507l-9.369,53.135h0Zm40.438-4.085,1.042-1.193-0.931,5.277h6.036l9.37-53.135h-6.507l-3.537,20.061-0.378-.723q-3.093-6.036-10.214-6.036a17.266,17.266,0,0,0-12.546,5.35,25.425,25.425,0,0,0-6.925,14.061q-1.741,9.868,1.827,15.67t11.339,5.8h0a15.361,15.361,0,0,0,11.424-5.133h0Zm2.148-25.61q1.974,4.283.578,12.2a17.258,17.258,0,0,1-4.552,9.416,11.239,11.239,0,0,1-8.255,3.56q-5.061,0-7.107-3.868t-0.785-11.025q1.338-7.591,4.483-11.079a11,11,0,0,1,8.6-3.488Q463.019,30.077,464.993,34.36Z"/>
</svg>
